<svg width="17" height="17" viewBox="0 0 17 17" fill="none" xmlns="http://www.w3.org/2000/svg">
<path d="M11.3761 1.73821C11.5753 1.93746 11.6872 2.20766 11.6872 2.4894C11.6872 2.77113 11.5753 3.04134 11.3761 3.24058L6.11677 8.49996L11.3761 13.7593C11.5697 13.9597 11.6768 14.2281 11.6744 14.5067C11.6719 14.7853 11.5602 15.0518 11.3632 15.2488C11.1662 15.4458 10.8997 15.5575 10.6211 15.5599C10.3426 15.5623 10.0742 15.4553 9.87377 15.2617L3.86321 9.25115C3.66402 9.0519 3.55212 8.7817 3.55212 8.49996C3.55212 8.21822 3.66402 7.94802 3.86321 7.74877L9.87377 1.73821C10.073 1.53902 10.3432 1.42712 10.625 1.42712C10.9067 1.42712 11.1769 1.53902 11.3761 1.73821V1.73821Z" fill="black"/>
</svg>
