<svg width="28" height="28" viewBox="0 0 28 28" fill="none" xmlns="http://www.w3.org/2000/svg">
<path d="M19.2891 3.15007C19.652 2.77552 20.0859 2.47692 20.5654 2.27165C21.0448 2.06639 21.5604 1.95857 22.0819 1.95447C22.6034 1.95037 23.1206 2.05007 23.6032 2.24776C24.0859 2.44546 24.5244 2.7372 24.8932 3.106C25.262 3.4748 25.5537 3.91329 25.7514 4.39593C25.9491 4.87857 26.0488 5.39572 26.0447 5.91727C26.0406 6.43881 25.9328 6.95433 25.7275 7.4338C25.5222 7.91327 25.2236 8.34712 24.8491 8.71007L23.3091 10.2501C23.8979 10.8635 24.2228 11.6832 24.2142 12.5335C24.2056 13.3837 23.8642 14.1967 23.2631 14.7981L21.2801 16.7801C21.2114 16.8538 21.1286 16.9129 21.0366 16.9539C20.9446 16.9948 20.8453 17.0169 20.7446 17.0187C20.6439 17.0204 20.5439 17.0019 20.4505 16.9642C20.3571 16.9265 20.2723 16.8703 20.2011 16.7991C20.1298 16.7279 20.0737 16.6431 20.036 16.5497C19.9982 16.4563 19.9797 16.3563 19.9815 16.2556C19.9833 16.1548 20.0053 16.0555 20.0463 15.9635C20.0873 15.8715 20.1464 15.7887 20.2201 15.7201L22.2021 13.7371C22.522 13.4172 22.7056 12.9858 22.7143 12.5335C22.7231 12.0812 22.5563 11.6431 22.2491 11.3111L10.0631 23.4971C9.62309 23.9371 9.07609 24.2571 8.47609 24.4251L2.95209 25.9721C2.82402 26.0078 2.68874 26.0089 2.56013 25.9751C2.43151 25.9414 2.31418 25.874 2.22016 25.78C2.12613 25.686 2.0588 25.5687 2.02505 25.44C1.9913 25.3114 1.99235 25.1761 2.02809 25.0481L3.57509 19.5231C3.74309 18.9231 4.06209 18.3771 4.50309 17.9371L19.2881 3.15007H19.2891Z" fill="black"/>
</svg>
