<svg width="30" height="30" viewBox="0 0 30 30" fill="none" xmlns="http://www.w3.org/2000/svg">
<path d="M18.3625 21.6125C18.4784 21.4969 18.5703 21.3595 18.633 21.2083C18.6957 21.0571 18.728 20.895 18.728 20.7313C18.728 20.5676 18.6957 20.4055 18.633 20.2543C18.5703 20.103 18.4784 19.9657 18.3625 19.85L13.5125 15L18.3625 10.15C18.5962 9.91631 18.7275 9.59932 18.7275 9.26878C18.7275 8.93825 18.5962 8.62125 18.3625 8.38753C18.1288 8.15381 17.8118 8.02251 17.4812 8.02251C17.1507 8.02251 16.8337 8.15381 16.6 8.38753L10.8625 14.125C10.7466 14.2407 10.6547 14.378 10.5919 14.5293C10.5292 14.6805 10.4969 14.8426 10.4969 15.0063C10.4969 15.17 10.5292 15.3321 10.5919 15.4833C10.6547 15.6345 10.7466 15.7719 10.8625 15.8875L16.6 21.625C17.075 22.1 17.875 22.1 18.3625 21.6125Z" fill="black"/>
</svg>
